<svg width="29" height="29" viewBox="0 0 29 29" fill="none" xmlns="http://www.w3.org/2000/svg">
<path d="M10.8747 15.7082H18.1247M10.8747 20.5415H14.4997M4.83301 4.83317V24.1665C4.83301 24.8074 5.08762 25.4221 5.54083 25.8753C5.99405 26.3286 6.60873 26.5832 7.24967 26.5832H21.7497C22.3906 26.5832 23.0053 26.3286 23.4585 25.8753C23.9117 25.4221 24.1663 24.8074 24.1663 24.1665V10.0798C24.1663 9.75781 24.1019 9.43911 23.977 9.14238C23.8521 8.84566 23.6692 8.57688 23.4389 8.35184L18.0739 3.10525C17.6224 2.6638 17.0161 2.41658 16.3847 2.4165H7.24967C6.60873 2.4165 5.99405 2.67112 5.54083 3.12433C5.08762 3.57754 4.83301 4.19223 4.83301 4.83317Z" stroke="white" stroke-width="2.58333" stroke-linecap="round" stroke-linejoin="round"/>
<path d="M16.916 2.4165V7.24984C16.916 7.89078 17.1706 8.50547 17.6238 8.95868C18.0771 9.41189 18.6917 9.6665 19.3327 9.6665H24.166" stroke="white" stroke-width="2.58333" stroke-linejoin="round"/>
</svg>
